<svg width="26" height="26" viewBox="0 0 26 26" fill="none" xmlns="http://www.w3.org/2000/svg">
<path d="M13 2C6.9225 2 2 6.84 2 12.8093C2 17.5861 5.1515 21.6368 9.52125 23.065C10.0712 23.1667 10.2729 22.8322 10.2729 22.5452C10.2729 22.2886 10.2638 21.6084 10.2592 20.7073C7.19933 21.3591 6.554 19.2572 6.554 19.2572C6.0535 18.0096 5.33025 17.6759 5.33025 17.6759C4.33383 17.0058 5.40725 17.0196 5.40725 17.0196C6.51183 17.0947 7.09208 18.1333 7.09208 18.1333C8.07292 19.7861 9.667 19.3085 10.2958 19.0326C10.3948 18.3332 10.6781 17.8574 10.9925 17.587C8.54958 17.3166 5.982 16.3871 5.982 12.2456C5.982 11.0658 6.40825 10.1015 7.11408 9.34525C6.99033 9.07208 6.61908 7.973 7.21033 6.48433C7.21033 6.48433 8.13158 6.19467 10.2353 7.59258C11.1153 7.35242 12.0503 7.23325 12.9853 7.22775C13.9203 7.23325 14.8553 7.35242 15.7353 7.59258C17.8253 6.19467 18.7466 6.48433 18.7466 6.48433C19.3378 7.973 18.9666 9.07208 18.8566 9.34525C19.5578 10.1015 19.9841 11.0658 19.9841 12.2456C19.9841 16.3981 17.4128 17.312 14.9653 17.5778C15.3503 17.9023 15.7078 18.5651 15.7078 19.578C15.7078 21.0245 15.6941 22.1868 15.6941 22.5379C15.6941 22.8212 15.8866 23.1594 16.4503 23.0512C20.8512 21.6322 24 17.5787 24 12.8093C24 6.84 19.0748 2 13 2Z" fill="#828282"/>
</svg>
