<svg width="26" height="26" viewBox="0 0 26 26" fill="none" xmlns="http://www.w3.org/2000/svg">
<path d="M23.5525 15.632V23.2682C23.5525 23.4823 23.4097 23.6251 23.1956 23.6251H19.2705C19.0564 23.6251 18.9136 23.4823 18.9136 23.2682V16.2029C18.9136 14.3474 18.2713 13.0628 16.5585 13.0628C15.2739 13.0628 14.5602 13.9192 14.2034 14.7756C14.0607 15.061 14.0607 15.4892 14.0607 15.9174V23.3396C14.0607 23.5537 13.9179 23.6964 13.7038 23.6964H9.77867C9.56457 23.6964 9.42183 23.5537 9.42183 23.3396C9.42183 21.4841 9.4932 12.2777 9.42183 10.1367C9.42183 9.92264 9.56457 9.7799 9.77867 9.7799H13.7038C13.9179 9.7799 14.0607 9.92264 14.0607 10.1367V11.7782C14.0607 11.7782 14.0607 11.7782 14.0607 11.8495V11.7782C14.703 10.8504 15.7735 9.49444 18.1999 9.49444C21.2687 9.3517 23.5525 11.35 23.5525 15.632ZM2.64199 23.6251H6.56716C6.78126 23.6251 6.924 23.4823 6.924 23.2682V10.0654C6.924 9.85127 6.78126 9.70854 6.56716 9.70854H2.64199C2.42789 9.70854 2.28516 9.85127 2.28516 10.0654V23.2682C2.28516 23.411 2.42789 23.6251 2.64199 23.6251Z" fill="#828282"/>
<path d="M6.92431 5.49784C6.92431 6.85381 5.78244 7.99568 4.42647 7.99568C3.0705 7.99568 2 6.85381 2 5.49784C2 4.14187 3.14187 3 4.49784 3C5.85381 3 6.92431 4.14187 6.92431 5.49784Z" fill="#828282"/>
</svg>
