<svg width="26" height="26" viewBox="0 0 26 26" fill="none" xmlns="http://www.w3.org/2000/svg">
<path d="M25.0811 5.55C24.2561 5.925 23.4311 6.15 22.5311 6.3C22.9061 6.225 23.5061 5.475 23.8061 5.175C24.1811 4.725 24.4811 4.2 24.6311 3.675C24.6311 3.6 24.7061 3.6 24.6311 3.525C24.5561 3.525 24.5561 3.525 24.4811 3.525C23.5061 4.05 22.5311 4.425 21.4811 4.65C21.4061 4.65 21.3311 4.65 21.2561 4.575C21.1811 4.5 21.1061 4.35 20.9561 4.275C20.5061 3.9 20.0561 3.6 19.5311 3.375C18.8561 3.075 18.0311 3 17.2811 3C16.5311 3.075 15.7811 3.225 15.1811 3.6C14.5061 3.975 13.9061 4.425 13.4561 5.025C13.0061 5.625 12.6311 6.3 12.4061 7.05C12.2561 7.8 12.2561 8.475 12.3311 9.225C12.3311 9.375 12.3311 9.375 12.2561 9.375C8.13107 8.775 4.68107 7.275 1.90607 4.125C1.75607 3.975 1.75607 3.975 1.60607 4.125C0.481066 6 1.08107 8.925 2.58107 10.35C2.80607 10.575 2.95607 10.725 3.18107 10.875C3.10607 10.875 2.05607 10.8 1.15607 10.35C1.00607 10.275 1.00607 10.35 0.931066 10.425C0.931066 10.65 0.931066 10.8 0.931066 11.025C1.15607 12.9 2.43107 14.55 4.23107 15.225C4.45607 15.3 4.68107 15.375 4.90607 15.45C4.53107 15.525 4.08107 15.6 2.95607 15.525C2.80607 15.525 2.73107 15.6 2.80607 15.675C3.63107 18 5.50607 18.75 6.93107 19.125C7.08107 19.125 7.30607 19.125 7.45607 19.2C7.00607 19.875 5.43107 20.4 4.68107 20.7C3.33107 21.15 1.83107 21.375 0.406066 21.225C0.181066 21.225 0.106066 21.225 0.031066 21.225C-0.043934 21.3 0.031066 21.3 0.106066 21.375C0.406066 21.6 0.706066 21.75 1.00607 21.9C1.90607 22.35 2.88107 22.8 3.85607 23.025C8.95607 24.45 14.7311 23.4 18.5561 19.575C21.5561 16.575 22.6061 12.45 22.6061 8.325C22.6061 8.175 22.8311 8.1 22.9061 8.025C23.6561 7.425 24.3311 6.75 24.9311 5.925C25.0811 5.775 25.0811 5.625 25.0811 5.55C25.1561 5.475 25.1561 5.475 25.0811 5.55Z" fill="#828282"/>
</svg>
